<?xml version="1.0" encoding="utf-8"?>
<!-- Generator: Adobe Illustrator 25.4.1, SVG Export Plug-In . SVG Version: 6.00 Build 0)  -->
<svg version="1.1" id="Layer_1" xmlns="http://www.w3.org/2000/svg" xmlns:xlink="http://www.w3.org/1999/xlink" x="0px" y="0px"
	 viewBox="0 0 432 307.47" style="enable-background:new 0 0 432 307.47;" xml:space="preserve">
<style type="text/css">
	.st0{fill:#325F8A;}
	.st1{fill:#D55193;}
	.st2{fill:#F7B5D1;}
	.st3{fill:#D665A6;}
	.st4{fill:#F6EDD3;}
	.st5{opacity:0.35;}
	.st6{fill:#FFFFFF;}
	.st7{opacity:0.27;}
</style>
<g>
	<path class="st6" d="M282.42,134.53c0.01,4.22-0.16,8.35-1.13,12.51c-1.61,6.91-4.92,13.84-10.38,17.28
		c-5.55,3.5-13.06,2.99-17.91-1.99c-5.01-5.16-5.69-13.78-5.18-21.19c0.46-6.7,1.96-13.31,4.44-19.34
		c5.03-12.24,14.27-21.74,25.89-23.05c6.07-0.68,12.9,1,17.7,5.72c5.23,5.15,5,12.64,4.2,20.04c-0.34,3.18-0.64,6.47-0.11,9.65
		c0.58,3.47,2.72,5.18,4.53,7.71c1.62,2.27,2.89,5.09,2.96,8.14c0.07,3.07-1.17,5.96-2.71,8.33c-3,4.61-7.87,7.27-12.73,5.76
		c-3.84-1.2-5.74-5.16-6.44-9.56c-0.92-5.74-0.44-11.78-0.45-17.58c-0.01-6.05,0.59-13.34-2.92-18.27
		c-3.46-4.87-9.34-6.3-14.17-3.63c-3.99,2.21-7.15,7.78-8.85,12.45c-0.71,1.96-1.62,6.87-0.96,8.88c1.6,4.9,4.15-1.74,5.01-4.55
		c1.32-4.25,1.9-8.67,5.19-11.51c2.58-2.23,6.24-3.12,9.16-1.28c3.67,2.31,4.76,7.08,4.81,11.7
		C282.4,132.02,282.42,133.28,282.42,134.53z"/>
	<path class="st6" d="M340.51,80.66c3.32-0.1,6.61,0.31,9.55,1.99c7.61,4.33,8.63,15.61,3.64,22.32c-1.96,2.64-5.11,4.14-8.4,4.13
		c-3.68-0.02-6.79-2.1-9.58-4.29c-3.09-2.43-5.94-5.2-9.22-7.38c-2.23-1.49-6.65-3.98-9.26-1.92c-2.7,2.13,0.67,5.94,2.01,7.84
		c4.62,6.59,10.5,12.66,12.55,20.66c0.82,3.21,1.08,6.37-0.15,9.51c-2.25,5.72-8.39,10.94-14.84,10.19
		c-4.12-0.48-7.83-3.12-10.12-6.51c-2.73-4.03-2.81-8.88-2.58-13.58c0.48-9.96-5.73-25.38,0.97-33.95c1.15-1.47,2.59-2.85,4.24-3.75
		c6.52-3.58,16.36-3.36,23.59-4.43C335.35,81.13,337.94,80.74,340.51,80.66z"/>
	<path class="st6" d="M187.74,108.93c0.54,3.57,0.44,7.32,0.28,10.29c-0.24,4.48-0.74,8.93-1.78,13.3
		c-3.3,13.82-16.29,32.31-32.98,27.33c-7.44-2.22-9.17-9.97-9.38-16.84c-0.24-7.92,1.28-17.01-4.57-23.4
		c-2.71-2.96-6.43-6.03-5.13-10.53c2.36-8.14,14.51-9.79,20.07-4.22c3.64,3.65,5.08,9.14,5.08,14.18c0,3.09-0.56,6.18-0.98,9.24
		c-0.43,3.14-1.51,6.81-0.78,9.95c0.45,1.94,2.79,5.54,4.65,2.75c0.6-0.9,0.88-1.98,1.23-2.99c0.54-1.54,1.05-3.05,1.35-4.65
		c1.83-9.63-1.29-20.1,2.88-29.29c2.11-4.64,7.66-8.54,12.82-6.41C185.08,99.52,187,104.07,187.74,108.93z"/>
	<path class="st6" d="M305.03,197.46c1.16,7.24,0.44,15.2-3.09,21.5c-5.37,9.6-17.05,13.26-26.52,11.92
		c-9.87-1.4-18.41-9.96-19.91-21.36c-0.67-5.12-0.01-10.36,1.05-15.35c1.44-6.78,4.46-13.43,9.44-17.75
		c5.12-4.44,11.9-6.04,18.21-5.01c3.82,0.62,7.52,2.22,10.68,4.75C301.23,181.23,303.7,189.11,305.03,197.46z M284.35,199.7
		c1.52-0.06,3.07-0.73,4.33-1.77c2.07-1.72,3.19-4.98,1.88-7.68c-1.62-3.35-5.59-3.21-8.26-1.81c-2.78,1.45-4.71,4.62-2.97,7.99
		C280.39,198.49,282.22,199.78,284.35,199.7z"/>
	<path class="st6" d="M254.72,191.82c0.09,4.53-0.81,9-3.21,13.01c-3.44,5.74-9.36,9.1-15.74,10.08c-0.56,0.09-1.12,0.15-1.68,0.21
		c-4.23,0.39-8.8,0.39-12.8-0.85c-13.21-4.12-16.08-20.83-11.81-32.72c0.94-2.61,2.22-5.08,3.78-7.35
		c4.94-7.19,12.1-10.43,20.75-8.98c7.08,1.19,13.6,4.81,17.08,11.49C253.47,181.26,254.61,186.65,254.72,191.82z M234.92,189.29
		c3.31,0.01,6.35-2.62,6.39-5.56c0.04-2.79-2.4-4.85-5.81-4.89c-3.14-0.04-5.41,1.76-5.73,4.41
		C229.39,186.39,231.86,189.28,234.92,189.29z"/>
	<path class="st6" d="M204.72,250.75c-5.43,0.04-10.65-0.78-15.22-4.35c-3.29-2.57-6.14-5.95-7.59-10.21
		c-0.49-1.43-0.82-2.93-1-4.46c-1.18-9.93-1.28-19.78-2.9-29.71c-1.39-8.53-3.55-16.88-6.6-24.84c-1.59-4.15-3.88-8.77-2.16-13.37
		c1.72-4.61,6.63-5.62,10.33-4.2c17.77,6.83,19.42,33.23,21.62,50.75c0.26,2.09,0.47,4.2,0.77,6.28c0.25,1.81,0.82,3.64,2,4.96
		c3.54,3.96,9.18,2.14,13.3,0.49c5.27-2.11,10.49-5.09,16.22-4.93c5.24,0.15,11.71,3.88,12.13,10.44
		c0.46,7.39-6.7,12.76-11.72,15.83c-6.49,3.97-13.85,5.84-21.13,6.75C210.09,250.53,207.4,250.57,204.72,250.75z"/>
	<path class="st6" d="M80.05,80.5c3.75-1.64,7.67-2.88,11.71-3.73c8.77-1.84,27.92-4.9,31.96,6.33c2.84,7.9-2.54,15.5-10.01,17.67
		c-9.03,2.62-27.45-2.16-33.87,6.14c-7.75,10.02,10.86,7.96,15.3,7.1c4.92-0.95,9.8-2.18,14.78-2.77
		c14.88-1.75,28.93,6.38,31.63,21.84c3.91,22.38-18.54,35.27-37.64,37.78c-14.14,1.86-34.55-1.71-43.27-14.35
		c-4.94-7.16-0.98-16.77,6.18-20.6c7.23-3.87,16.52-3.23,24.34-2.01c4.45,0.69,31.29,7.45,25.25-7.13
		c-3.19-7.69-15.27-4.97-21.16-3.21c-8.49,2.54-16.49,5.7-25.34,2.76c-7.63-2.54-14.35-8.88-14.87-17.26
		c-0.5-8,5.09-14.79,10.82-19.69C70.15,85.7,74.93,82.74,80.05,80.5z"/>
	<path class="st6" d="M247.87,117.66c0,18.39-6.88,38.66-24.7,46.75c-6.28,2.85-14.2,5.41-21.11,3.9
		c-5.59-1.22-10.99-6.54-10.08-12.63c0.93-6.22,7.12-8.66,12.05-11.15c9.54-4.8,21.27-7.79,27.64-17.05
		c5.27-7.66,7.23-18.58,4.68-27.54c-1.25-4.4-3.74-8.22-7.64-10.69c-3.58-2.27-8.17-3.48-12.4-2.75
		c-4.86,0.84-14.98,6.04-8.96,11.88c2.91,2.83,7.64,3.41,11.42,4.28c7.07,1.63,14.03,6.14,12.89,14.46
		c-0.64,4.66-4.11,8.35-7.98,10.72c-12.47,7.64-28.12,3.7-32.14-11.27c-3.25-12.15,0.79-28.52,11.93-35.48
		c7.25-4.53,16.76-4.66,24.56-1.53c10.19,4.09,16.71,13.69,18.6,24.27C247.44,108.34,247.87,112.99,247.87,117.66z"/>
	<path class="st6" d="M320.55,185.92c0.37,7.96,3.12,15.43,6.77,22.04c3.67,6.65,9.02,11.68,12.71,18.18
		c0.76,1.34,1.35,2.85,1.44,4.47c0.08,1.47-0.31,2.98-0.79,4.33c-1.61,4.59-5.25,7.35-9.31,8.24c-4.28,0.94-8.88,0.06-12.82-2.06
		c-1.9-1.03-3.7-2.38-5.2-4.11c-1.93-2.24-3.15-5.12-3.92-8.15c-1.18-4.68-1.51-9.71-1.83-14.56c-0.94-14.25,0.47-28.87,5.18-42.12
		c2-5.63,4.45-11.51,7.81-16.2c2.82-3.94,6.53-6.82,10.65-8.55c6.14-2.57,12.04-1.28,17.18,3.28c10.22,9.07,16.1,29.82,11.2,44.03
		c-1.2,3.46-3.1,6.6-5.54,9c-9.91,9.78-24.34,3.05-28.54-10.46c-1.21-3.89-1.51-8.51,0.11-12.3c1.87-4.37,5.8-5.56,9.63-6.19
		c4.71-0.77,11.21-1.51,12.3-8.28c0.67-4.18-2.78-6.56-5.79-7.15c-3.53-0.69-7.58-0.43-10.97,1.01
		C322.6,163.9,320.14,176.87,320.55,185.92z"/>
</g>
</svg>
